<svg width="26" height="25" viewBox="0 0 26 25" fill="none" xmlns="http://www.w3.org/2000/svg">
<path d="M23.1665 2.125C21.9165 0.75 20.0415 0 17.9165 0H7.4165C3.0415 0 0.166504 2.875 0.166504 7.25V17.625C0.166504 19.75 0.916504 21.625 2.2915 23C3.6665 24.25 5.4165 25 7.5415 25H17.7915C19.9165 25 21.7915 24.25 23.0415 23C24.4165 21.75 25.1665 19.875 25.1665 17.625V7.25C25.1665 5.25 24.4165 3.375 23.1665 2.125ZM22.9165 17.75C22.9165 19.25 22.4165 20.625 21.4165 21.375C20.5415 22.25 19.2915 22.625 17.7915 22.625H7.5415C6.0415 22.625 4.7915 22.125 3.9165 21.375C3.0415 20.5 2.5415 19.25 2.5415 17.625V7.25C2.5415 5.75 3.0415 4.5 3.9165 3.625C4.7915 2.75 6.0415 2.375 7.5415 2.375H17.9165C19.4165 2.375 20.6665 2.875 21.5415 3.75C22.4165 4.625 22.9165 5.875 22.9165 7.375V17.75V17.75Z" fill="#32120D"/>
</svg>
